<?xml version="1.0" encoding="UTF-8"?>
<!DOCTYPE svg PUBLIC "-//W3C//DTD SVG 1.1//EN" "http://www.w3.org/Graphics/SVG/1.1/DTD/svg11.dtd">
<!-- Creator: CorelDRAW -->
<svg xmlns="http://www.w3.org/2000/svg" xml:space="preserve" width="169.333mm" height="33.8667mm" version="1.1" style="shape-rendering:geometricPrecision; text-rendering:geometricPrecision; image-rendering:optimizeQuality; fill-rule:evenodd; clip-rule:evenodd"
viewBox="0 0 18162.65 3632.55"
 xmlns:xlink="http://www.w3.org/1999/xlink"
 xmlns:xodm="http://www.corel.com/coreldraw/odm/2003">
 <defs>
  <style type="text/css">
   <![CDATA[
    .fil0 {fill:none;fill-rule:nonzero}
    .fil1 {fill:#FEFEFE;fill-rule:nonzero}
   ]]>
  </style>
 </defs>
 <g id="Layer_x0020_1">
  <metadata id="CorelCorpID_0Corel-Layer"/>
  <rect class="fil0" x="-0.01" y="0.01" width="18162.65" height="3632.54"/>
  <g id="_2290060638304">
   <path class="fil1" d="M11320.45 142.57c127.58,-47.14 255.24,-94.39 382.99,-141.54 -246.29,1198.42 -494.5,2396.35 -739.75,3594.85 128.53,-155.89 254,-314.26 381.29,-471.2 -94.49,-127.1 -130.04,-290.89 -118.45,-447.07 13.21,-182.03 85.74,-354.57 181.66,-507.9 39.07,-59.7 71.78,-123.38 110.84,-183.08 179,-280.24 388.8,-539.84 613.52,-784.43 108.36,-119.58 226.52,-229.67 340.41,-343.82 152.18,-149.05 301.62,-300.88 455.43,-448.03 43.44,116.45 88.31,232.33 132.33,348.49 -302.39,214.07 -591.27,447.36 -863.33,698.89 -242.69,226.62 -474.15,468.54 -661.14,744.12 -81.55,118.53 -146.96,247.15 -204.57,378.81 -43.72,111.69 -50.85,238.6 -13.98,353.23 22.54,73.21 62.64,139.64 110.75,198.77 -152.19,158.27 -305.81,315.21 -457.24,474.25 40.78,-10.17 77.2,-31.65 115.69,-47.9 296.49,-129.38 612.37,-211.23 931.96,-258.28 316.64,-45.44 638.8,-56.46 957.63,-29.19 44.58,27 84.5,61.42 127.09,91.64 -382.43,-32.22 -768.18,-25.38 -1149.65,16.83 -231,26.33 -460.75,67.96 -684.33,132.59 -98.38,30.14 -198.2,59.13 -291.35,103.14l-5.33 -8.93c-6.76,6.18 -20.15,18.55 -26.9,24.71 124.43,-1162.96 249.72,-2325.91 374.44,-3488.97l-0.02 0.01z"/>
   <path class="fil1" d="M11696.87 704.57c99.72,-22.16 199.63,-43.83 299.06,-66.92 59.41,66.54 117.88,133.94 176.05,201.52 -139.55,104.76 -277.76,211.42 -416.83,316.84 -19.49,-150.48 -39.36,-300.86 -58.27,-451.44l0 0z"/>
   <path class="fil1" d="M10291.24 2674.85c14.16,0 28.52,0.11 42.86,0.11 -8.74,30.7 -15.86,61.88 -23.38,92.96 22.44,-19.1 71.67,-33.74 83.28,3.8 0.95,40.02 -13.21,78.33 -20.06,117.4 -13.88,-0.19 -27.66,-0.19 -41.45,-0.09 5.89,-38.41 22.62,-75.67 22.34,-114.65 -12.64,-7.13 -27.38,-4.18 -35.84,7.32 -22.62,30.99 -23.85,70.91 -29.94,107.42 -13.98,-0.09 -27.95,-0.19 -41.72,-0.09 17.1,-70.82 31.75,-142.31 43.91,-214.18l-0.01 0z"/>
   <path class="fil1" d="M10573.95 2892.74c18.53,-71.86 34.88,-144.3 46.1,-217.68 13.78,0.1 27.57,0.1 41.54,0.1 -7.33,27.57 -13.31,55.51 -20.06,83.17 24.35,-13.21 62.65,-16.55 78.14,11.59 22.62,46.29 -4.27,116.36 -58.55,123.86 -20.82,5.04 -36.68,-11.4 -53.71,-19.77 -11.31,5.99 -22.54,12.26 -33.45,18.73l0 0 -0.01 0zm72.43 -116.16c-16.36,25.39 -25,57.71 -19.59,87.74 3.89,16.54 28.13,18.16 37.37,5.32 18.34,-23.48 24.81,-55.52 20.9,-84.62 -1.43,-19.57 -29.28,-24.7 -38.69,-8.45l0 0.01z"/>
   <path class="fil1" d="M10946.48 2718.29c14.64,-5.6 29.09,-11.21 43.83,-16.63 -3.89,16.91 -7.7,33.84 -11.5,50.76 7.03,0.67 21.19,1.9 28.23,2.47 -5.33,13.59 -19.97,12.45 -31.76,14.82 -8.84,34.03 -17.2,68.26 -18.63,103.62 8.18,2.08 24.43,6.46 32.61,8.56 -21.86,15.21 -64.45,16.82 -70.44,-15.79 0.67,-33.55 11.79,-65.69 18.26,-98.38 -5.9,-0.39 -17.87,-1.23 -23.87,-1.72 8.18,-7.71 18.06,-12.94 28.34,-17.59 1.51,-10.07 3.23,-20.15 4.94,-30.14l-0.01 0.01z"/>
   <path class="fil1" d="M9985.25 2817.93c-15.32,-21.48 -4.85,-55.7 19.77,-65.21 24.14,-11.59 49.91,0 72.53,9.6 -5.51,9.88 -10.75,19.96 -16.06,30.04 -4.85,-25.86 -50.28,-46.4 -55.32,-10.65 21.19,22.91 67.49,35.75 55.81,75.77 -12.26,44.2 -71.02,43.35 -102.67,21.19 4.66,-11.03 9.41,-22.05 14.25,-33.08 9.03,11.69 14.06,30.71 31.46,32.42 13.02,3.23 29.85,-3.72 27.95,-19.39 -14.54,-15.22 -33.37,-25.47 -47.72,-40.68l0 -0.01z"/>
   <path class="fil1" d="M10119.19 2777.8c12.64,-37.46 70.72,-39.17 95.15,-13.59 12.74,35.84 -11.79,72.34 -10.55,109.03 5.03,3.52 15.21,10.65 20.34,14.27 -20.06,4.37 -41.64,6.65 -58.36,-7.42 -16.64,11.51 -39.07,19.49 -57.71,7.99 -28.42,-17.87 -19.39,-69.78 15.03,-74.44 19.2,-9.02 60.73,-0.57 57.22,-32.14 -7.88,-29.27 -42.4,-11.12 -61.12,-3.71l0 0 0 0.01zm11.79 69.58c-4.18,12.74 9.7,20.25 15.31,29.75 20.92,-14.63 26.43,-39.06 28.62,-63.11 -17.48,4.94 -44.3,9.6 -43.91,33.37l-0.01 -0.01z"/>
   <path class="fil1" d="M10457.02 2756.9c26.13,-7.41 59.6,-17.48 82.42,3.42 30.61,38.88 -34.99,97.06 10.17,128.24 -19.67,4.66 -38.87,3.51 -55.23,-9.03 -13.41,7.88 -27.47,18.06 -44.02,13.31 -36.11,-3.89 -40.68,-61.6 -9.02,-75.47 18.81,-7.89 39.63,-8.28 58.93,-14.93 13.88,-5.52 12.83,-32.69 -2.66,-34.6 -16.64,-9.31 -32.51,5.31 -47.33,11.03 1.72,-5.43 5.03,-16.45 6.75,-21.97l0 0 0 0zm16.63 66.92c-18.16,9.21 -21.47,47.24 3.14,48.57 24.24,-7.6 22.44,-37.64 27.38,-57.98 -7.71,2.37 -22.91,7.03 -30.53,9.41l0 0.01z"/>
   <path class="fil1" d="M10780.22 2778.09c8.65,-40.49 80.9,-41.17 96.87,-6.26 2.48,33.93 -10.64,66.73 -16.16,99.9 5.52,3.7 16.44,11.03 21.97,14.74 -19.67,5.61 -41.17,8.56 -56.94,-7.32 -14.92,10.26 -32.69,19.1 -51.14,12.55 -29.37,-9.7 -32.22,-54.85 -7.8,-71.39 15.11,-8.84 32.89,-10.65 49.52,-15.98 0.67,3.24 2.09,9.79 2.76,13.03 -5.31,1.72 -16.06,5.22 -21.47,7.03 -4.38,15.03 -16.83,40.4 5.22,47.91 36.79,-6.37 26.24,-52.86 26.8,-79.66l13.79 6.08c1.61,-40.68 -39.56,-37.08 -63.41,-20.63l0 0z"/>
   <path class="fil1" d="M5333.89 3214.03c728.25,-268.54 1510.31,-373.77 2284.28,-354.28 856.87,22.05 1706.79,187.17 2520.22,454.1 270.92,90.87 540.41,188.87 798.97,310.94 -803.15,-272.07 -1636.26,-461.7 -2481.62,-536.99 -594.4,-52.86 -1194.71,-49.05 -1787.1,24.81 -354.96,44.48 -707.24,113.78 -1050.42,215.22 -190.49,56.75 -378.81,122.53 -559.14,206.38 65.59,-93.64 133.94,-185.27 200.29,-278.34 15.21,-27.28 48.58,-30.42 74.52,-41.82l0.01 -0.01z"/>
   <path class="fil1" d="M5385.31 1199.83c53.23,5.89 106.94,6.46 160.07,-0.1 -8.17,286.51 -11.4,573.11 -12.16,859.71 -2.66,20.25 6.56,46.49 31.18,43.83 33.45,-7.88 59.41,-32.61 86.03,-52.95 114.64,-97.06 212.45,-211.98 305.71,-329.28 55.89,6.76 112.35,7.04 168.15,-0.47 -141.26,101.91 -260.65,229.94 -389.17,346.68 -7.41,10.17 -32.69,21.29 -15.02,34.69 142.69,168.74 288.04,335.19 430.42,504.1 -67.86,-5.31 -136.21,-6.55 -203.99,0.58 -110.27,-147.16 -219.11,-296.6 -346.87,-429.38 -17.49,-13.21 -37.46,-44.21 -61.89,-30.89 -5.42,14.63 -4.28,30.5 -4.75,45.91 0,138.12 2.56,276.33 11.98,414.17 -52.85,-6.37 -106.37,-6.18 -159.22,-0.19 12.07,-468.64 14.92,-937.76 -0.48,-1406.41l-0.01 0.01z"/>
   <path class="fil1" d="M9809.29 1200.78c53.51,5.8 107.7,5.8 161.32,0.19 -9.22,257.33 -7.42,514.85 -7.6,772.26 1.72,210.94 4.08,421.97 11.22,632.81 -52.86,-5.72 -106.19,-5.61 -159.03,0 3.51,-59.23 5.33,-118.54 2.85,-177.76 -41.26,75.01 -101.15,144.87 -184.13,173.66 -115.88,40.02 -253.91,28.52 -353.82,-45.71 -88.88,-65.31 -138.2,-172.15 -153.7,-279.2 -16.64,-119.39 -5.52,-245.72 47.62,-355.23 46.77,-97.91 134.79,-177.65 240.98,-204.76 99.33,-25.96 212.84,-16.34 297.82,44.87 41.54,28.62 72.72,69.2 100.58,110.75 0.19,-223.97 5.71,-448.01 -4.09,-671.88l0 0 -0.01 0zm-303.62 579.58c-72.05,11.41 -134.78,59.51 -170.15,122.53 -52.47,93.06 -62.18,203.33 -58.56,308.18 4.94,94.49 23.77,195.73 88.88,268.45 93.35,106.37 281.47,92.3 365.7,-18.55 68.91,-89.17 84.03,-206.46 85.55,-315.88 0.28,-101.15 -14.54,-210.84 -81.94,-290.7 -54.85,-65.87 -147.25,-89.15 -229.47,-74.05l-0.01 0.01z"/>
   <path class="fil1" d="M8715.82 1305.06c62.26,-23.2 136.41,32.33 126.52,99.33 -3.42,74.52 -103.6,115.11 -158.18,63.98 -56.85,-43.63 -38.11,-144.59 31.65,-163.31l0 0z"/>
   <path class="fil1" d="M8036.81 1507.24c52.38,-9.02 103.52,-24.34 151.72,-46.75 -6.47,88.31 -5.33,176.9 -5.8,265.4 80.81,1.23 161.71,-0.09 242.3,-5.79 -2.47,26.14 -4.08,52.38 -5.03,78.61 -79.47,-4.66 -159.13,-3.23 -238.79,-3.51 -14.36,141.54 -4.94,283.94 -7.6,425.87 2.38,84.61 -9.03,172.35 18.82,254 13.12,41.54 49.33,74.52 92.88,80.62 60.16,13.49 119.01,-11.41 172.81,-35.75 4.57,14.25 9.22,28.62 13.88,42.97 -93.64,61.31 -214.46,81.56 -321.39,46.29 -48.01,-15.79 -86.6,-55.05 -103.04,-102.56 -25.67,-70.45 -20.25,-146.69 -18.63,-220.26 4.75,-163.69 9.32,-327.57 7.8,-491.44 -39.07,-0.1 -78.24,1.61 -117.12,5.42 1.91,-26.43 2.66,-52.95 1.72,-79.37 39.55,3.14 79.29,5.04 119.11,5.8 0.67,-73.21 -0.28,-146.39 -3.61,-219.5l0 -0.04z"/>
   <path class="fil1" d="M6377.36 1808.87c116.73,-94.58 278.72,-124.71 423.4,-88.88 63.11,15.68 119.1,59.8 144.58,120.25 41.83,95.82 29.28,202.95 28.62,304.58 -1.52,98.1 -6.46,196.1 -4.94,294.2 2,29 1.43,62.93 23.66,84.98 25.01,21.58 60.55,15.12 90.97,15.97 1.91,9.22 5.61,27.66 7.42,36.98 -60.27,18.24 -123.86,38.12 -187.46,26.8 -47.52,-9.49 -63.11,-60.64 -72.06,-101.8 -64.26,64.73 -148.19,113.12 -240.4,120.44 -81.46,6.84 -171.97,-4.66 -235.08,-61.31 -66.53,-61.03 -79,-163.12 -53.51,-246.2 18.63,-64.07 71.95,-111.4 131.09,-138.5 126.05,-61.88 274.05,-48.28 402.1,-102.66 5.7,-72.64 4.18,-151.24 -32.04,-216.64 -32.41,-57.13 -101.63,-79.19 -163.89,-78.71 -81.27,-3.89 -164.63,28.23 -217.67,90.78 -15.79,15.68 -25.67,39.64 -48.96,45.44 0.47,-35.26 2.08,-70.44 4.18,-105.7l0 0 0.01 -0.02zm134.78 426.14c-76.42,48.67 -82.42,158.09 -44.29,232.81 29.85,58.18 99.62,83.56 161.97,77.75 65.41,-6.84 128.06,-37.46 174.53,-83.85 19.02,-18.16 30.52,-43.44 29.85,-69.96 0.67,-84.42 -0.09,-168.83 0.19,-253.24 -109.32,22.81 -225.96,35.56 -322.25,96.48l-0.01 0z"/>
   <path class="fil1" d="M10327.16 1810.29c112.27,-93.16 268.06,-123.57 409.33,-94.01 55.23,11.59 108.55,41.17 140.11,89.07 40.4,60.27 49.16,135.36 50.2,206.27 -0.28,139.56 -7.8,279 -7.33,418.55 1.52,30.71 0.48,65.41 20.63,90.69 24.53,25.11 62.75,18.35 94.4,19.1 2.09,12.65 4.18,25.28 6.47,38.02 -61.5,16.55 -125.96,38.69 -190.12,24.71 -45.71,-11.11 -60.17,-61.31 -68.25,-101.71 -65.02,67.21 -152,115.5 -246.39,121.97 -81.09,5.7 -171.02,-6.95 -232.52,-64.74 -67.1,-65.12 -76.99,-171.86 -45.81,-256.57 22.62,-61.79 77.85,-104.37 136.4,-129.95 125.01,-57.22 269.68,-44.58 395.06,-99.53 -0.95,-75.66 3.24,-158.65 -41.06,-224.33 -35.37,-52.95 -102.95,-70.24 -163.3,-69.48 -79,-2.66 -159.03,29.38 -211.03,89.54 -16.07,16.26 -26.62,39.45 -49.62,47.44 -0.1,-35.07 1.9,-70.06 2.84,-105.04l0 0 -0.01 0zm193.07 394.02c-50.48,20.15 -101.34,54.85 -116.83,109.79 -20.43,76.05 -0.38,174.81 75.38,212.75 87.73,43.25 193.54,7.88 263.6,-52.95 24.42,-20.34 44.09,-49.24 42.58,-82.32 0.95,-84.4 -0.09,-168.73 0.28,-253.14 -89.35,17.02 -180.04,32.15 -265.03,65.88l0.01 0z"/>
   <path class="fil1" d="M11940.71 1809.92c113.12,-93.54 270.17,-123.49 412.18,-92.96 59.04,12.92 115.4,47.43 145.16,101.43 39.73,69.87 43.25,153.05 42.21,231.56 -2.27,129.95 -8.08,259.79 -6.94,389.74 1.14,28.13 1.72,60.27 21.58,82.61 24.71,23.39 61.41,17.02 92.4,17.59 2,9.31 6.07,27.86 8.08,37.07 -60.75,18.06 -124.63,38.41 -188.41,26.62 -47.62,-9.99 -63.59,-61.88 -71.1,-103.61 -73.29,79.84 -180.33,129.09 -289.45,124.34 -81.75,-1.05 -172.44,-28.13 -217.97,-101.05 -61.79,-101.99 -40.4,-255.71 64.54,-321.39 133.66,-90.88 306.18,-67.4 450.2,-129.85 -1.61,-75.01 2.47,-156.66 -40.21,-222.24 -34.51,-53.43 -101.71,-71.86 -161.98,-71.39 -74.71,-2.85 -150.57,24.53 -203.23,78.04 -20.54,19.59 -33.94,46.67 -59.51,60.55 -1.04,-35.74 1.14,-71.38 2.47,-107.03l0 0 0 -0.01zm194.68 393.63c-53.33,20.63 -106.94,58.37 -120.54,117.21 -16.64,72.72 2,164.55 71.96,203.24 75.58,41.54 169.49,19.59 237.84,-26.43 32.89,-22.81 70.26,-52 72.9,-95.44 3.71,-87.65 -0.47,-175.38 2.1,-263.03 -89.37,15.21 -179.48,31.57 -264.27,64.45z"/>
   <path class="fil1" d="M7656.76 1726.93c44.2,-22.72 95.15,-15.86 141.82,-6.08 -5.89,46.21 -6.94,92.79 -8.84,139.27 -2.56,3.24 -7.8,9.79 -10.36,13.02 -50.28,-21.28 -107.89,-33.93 -160.46,-12.54 -59.31,21.86 -91.84,82.52 -107.14,140.4 -26.61,102.48 -24.13,209.61 -22.71,314.65 0.28,96.87 2.76,193.83 8.65,290.5 -50.85,-5.61 -102.28,-5.99 -153.04,0 9.03,-232.99 9.6,-466.16 8.84,-699.35 -0.95,-61.78 -3.34,-123.67 -8.84,-185.27 53.23,6.66 107.23,6.84 160.55,0.11 -7.69,66.06 -11.49,132.7 -10.74,199.33 39.63,-74.34 83.54,-155.04 162.25,-194.02l0.02 -0.02z"/>
   <path class="fil1" d="M8668.76 1721.71c51.52,6.37 103.71,6.46 155.33,0.09 -12.94,294.59 -11.32,589.57 0,884.14 -51.62,-5.6 -103.81,-5.6 -155.33,0.19 11.88,-294.58 13.78,-589.83 0,-884.42l0 0z"/>
   <path class="fil1" d="M11766.18 2675.14c13.88,0 27.95,0 42.01,-0.09 -18.05,70.63 -34.22,141.82 -43.44,214.26 -37.55,-12.84 -86.88,23.38 -114.93,-13.41 -23.66,-41.17 -6.37,-104.85 38.22,-124.43 20.82,-9.99 41.64,1.8 59.8,11.69 6.84,-29.19 13.02,-58.47 18.34,-88.03l0 0 0 0zm-65.49 100.48c-17.59,22.91 -23.19,53.71 -20.54,82.04 1.23,21.3 31.65,23.19 41.17,6.37 14.56,-23.96 20.15,-53.62 16.64,-81.28 -2.38,-18.63 -28.13,-22.05 -37.26,-7.13z"/>
   <path class="fil1" d="M12488.06 2678.56c29.38,-13.2 44.67,36.41 15.03,42.3 -25.11,8.93 -40.12,-31.94 -15.03,-42.3z"/>
   <path class="fil1" d="M11360.37 2888.46c17.87,-63.5 29.94,-128.42 39.55,-193.64 15.78,0.09 31.65,0 47.52,-0.1 -18.16,63.87 -30.99,129.17 -40.39,194.87 -15.69,-0.48 -31.19,-0.85 -46.68,-1.14l0.01 0z"/>
   <path class="fil1" d="M11487.85 2751.29c14.64,1.43 30.33,0.67 43.25,9.5 22.62,-12.92 66.17,-23.29 74.81,10.93 2.66,39.93 -11.68,78.53 -19.2,117.21 -10.36,0.1 -31.08,0.19 -41.36,0.28 7.89,-35.55 20.25,-70.63 22.25,-107.23 0.1,-19.78 -27.08,-11.5 -34.49,-1.9 -24.82,30.42 -25.1,71.96 -31.85,108.85 -10.36,0.1 -31.28,0.19 -41.64,0.28 10.83,-45.63 20.34,-91.64 28.23,-137.93l0 0z"/>
   <path class="fil1" d="M11859.62 2755.75c37.07,-19.48 99.15,-4.46 100.86,44.21 11.31,68.82 -78.42,122.04 -132.7,78.61 -33.27,-37.83 -12.45,-103.24 31.85,-122.81l0 0 0 -0.01zm27.76 8.27c-29.84,21.96 -38.69,64.92 -35.07,99.9 4,21.77 35.18,19.1 44.87,3.14 18.06,-23.95 27.19,-55.23 23.96,-85.16 -1.04,-16.26 -19.67,-25 -33.74,-17.87l-0.01 -0.01z"/>
   <path class="fil1" d="M12010.01 2751.09c14.82,1.52 30.5,1.43 43.82,9.7 22.72,-13.31 66.07,-22.9 74.62,11.4 2.28,39.84 -12.16,78.14 -19.67,116.74 -13.87,0 -27.65,0.09 -41.45,0.28 9.99,-39.64 22.63,-79.19 22.44,-120.44 -13.32,4.27 -31.28,2 -38.69,16.44 -20.25,30.61 -21.48,68.64 -27.58,103.71 -10.45,0.09 -31.27,0.28 -41.72,0.38 10.94,-45.82 20.54,-91.83 28.23,-138.2l0 0z"/>
   <path class="fil1" d="M12158.59 2829.91c-4.18,-55.42 57.61,-100.38 108.36,-75.58 27.47,12.07 25.18,45.92 24.42,70.81 -31.46,0.39 -62.92,0.29 -94.29,0.48 3.7,15.6 0.67,37.37 17.48,46.21 19.86,11.79 43.26,0.76 64.36,-0.28 -32.51,46.2 -127.1,19.29 -120.35,-41.64l0 0 0.01 -0.01zm41.92 -17.49c18.34,-0.76 36.98,-1.61 55.52,-3.23 -2.66,-15.58 5.03,-45.05 -18.63,-46.2 -25.39,1.9 -30.32,30.03 -36.89,49.43z"/>
   <path class="fil1" d="M12343.29 2829.33c-30.81,-17.1 -22.44,-67.29 9.7,-77.57 23.85,-10.07 48.47,1.33 70.44,10.75 -5.8,9.99 -11.31,19.96 -16.83,30.03 -6.65,-23.77 -36.69,-43.16 -55.32,-19.2 7.33,27.38 42.79,31.46 55.13,55.81 6.47,19.77 0.67,44.29 -17.86,55.42 -24.24,14.54 -56.47,11.03 -79.86,-3.71 1.33,-12.26 4.18,-24.24 6.65,-36.32 13.31,19.21 30.89,42.98 58.08,31.85 16.91,-23.77 -17.11,-32.79 -30.14,-47.04l0.01 -0.01z"/>
   <path class="fil1" d="M12467.71 2752.63c14.17,0 28.42,0 42.79,0 -12.65,44.77 -22.25,90.3 -29.28,136.32 -10.55,0.09 -31.65,0.28 -42.21,0.28 11.4,-45.06 21.19,-90.6 28.7,-136.61l0 0.01z"/>
   <path class="fil1" d="M12557.36 2777.33c10.83,-39.17 81.74,-40.88 97.53,-5.14 2.08,33.85 -10.26,66.46 -16.07,99.44 5.33,3.8 16.07,11.4 21.39,15.21 -19.48,5.52 -40.3,7.04 -56.46,-7.13 -21.77,18.73 -65.41,21.1 -73.48,-12.55 -15.1,-43.54 45.44,-74.72 77.75,-49.52 -36.02,-11.11 -59.88,55.61 -18.24,54.38 20.82,-13.6 16.73,-40.6 20.63,-61.61 -0.1,-13.68 11.98,-29.17 0.76,-41.06 -18.06,-10.36 -36.79,2.56 -53.8,7.99l0 -0.01z"/>
  </g>
 </g>
</svg>
