<?xml version="1.0" encoding="UTF-8"?>
<!DOCTYPE svg PUBLIC "-//W3C//DTD SVG 1.1//EN" "http://www.w3.org/Graphics/SVG/1.1/DTD/svg11.dtd">
<!-- Creator: CorelDRAW -->
<svg xmlns="http://www.w3.org/2000/svg" xml:space="preserve" width="169.333mm" height="33.8667mm" version="1.1" style="shape-rendering:geometricPrecision; text-rendering:geometricPrecision; image-rendering:optimizeQuality; fill-rule:evenodd; clip-rule:evenodd"
viewBox="0 0 2786.49 557.3"
 xmlns:xlink="http://www.w3.org/1999/xlink"
 xmlns:xodm="http://www.corel.com/coreldraw/odm/2003">
 <defs>
  <style type="text/css">
   <![CDATA[
    .fil2 {fill:none}
    .fil1 {fill:#716B2D;fill-rule:nonzero}
    .fil0 {fill:#F37A1F;fill-rule:nonzero}
   ]]>
  </style>
 </defs>
 <g id="Layer_x0020_1">
  <metadata id="CorelCorpID_0Corel-Layer"/>
  <g id="_2695401101296">
   <g id="__x0023_f37a1fff">
    <path class="fil0" d="M1736.96 21.73c19.58,-7.24 39.18,-14.49 58.79,-21.73 -37.81,183.96 -75.91,367.85 -113.55,551.83 19.73,-23.93 38.99,-48.24 58.53,-72.33 -14.5,-19.51 -19.96,-44.65 -18.18,-68.63 2.03,-27.94 13.16,-54.43 27.89,-77.97 6,-9.16 11.02,-18.94 17.01,-28.1 27.48,-43.02 59.68,-82.87 94.18,-120.41 16.63,-18.36 34.77,-35.25 52.25,-52.78 23.36,-22.88 46.3,-46.18 69.91,-68.77 6.67,17.87 13.56,35.66 20.31,53.49 -46.42,32.86 -90.76,68.67 -132.52,107.28 -37.25,34.79 -72.78,71.92 -101.49,114.23 -12.52,18.2 -22.56,37.94 -31.4,58.15 -6.71,17.15 -7.81,36.63 -2.15,54.22 3.46,11.24 9.62,21.44 17,30.51 -23.36,24.3 -46.94,48.39 -70.19,72.8 6.26,-1.56 11.85,-4.86 17.76,-7.35 45.51,-19.86 94,-32.42 143.06,-39.65 48.6,-6.98 98.06,-8.67 147,-4.48 6.84,4.15 12.97,9.43 19.51,14.07 -58.7,-4.95 -117.92,-3.9 -176.48,2.58 -35.46,4.04 -70.73,10.43 -105.05,20.36 -15.1,4.63 -30.42,9.08 -44.72,15.83l-0.82 -1.37c-1.04,0.95 -3.09,2.85 -4.13,3.79 19.1,-178.52 38.33,-357.04 57.48,-535.57z"/>
    <path class="fil0" d="M1794.74 108c15.31,-3.4 30.64,-6.73 45.91,-10.27 9.12,10.21 18.09,20.56 27.02,30.93 -21.42,16.08 -42.64,32.45 -63.99,48.63 -2.99,-23.1 -6.04,-46.18 -8.94,-69.3z"/>
    <path class="fil0" d="M1578.97 410.44c2.17,0 4.38,0.01 6.58,0.01 -1.34,4.71 -2.44,9.5 -3.59,14.27 3.44,-2.93 11,-5.18 12.78,0.58 0.14,6.14 -2.03,12.02 -3.08,18.02 -2.13,-0.03 -4.25,-0.03 -6.36,-0.01 0.9,-5.9 3.47,-11.62 3.43,-17.6 -1.94,-1.09 -4.2,-0.64 -5.5,1.12 -3.47,4.76 -3.66,10.89 -4.6,16.49 -2.14,-0.01 -4.29,-0.03 -6.41,-0.01 2.63,-10.87 4.87,-21.84 6.74,-32.88z"/>
    <g>
     <path class="fil0" d="M1622.37 443.89c2.85,-11.03 5.35,-22.15 7.08,-33.41 2.11,0.01 4.23,0.01 6.38,0.01 -1.12,4.23 -2.04,8.52 -3.08,12.77 3.74,-2.03 9.62,-2.54 11.99,1.78 3.47,7.11 -0.66,17.86 -8.99,19.01 -3.2,0.77 -5.63,-1.75 -8.24,-3.04 -1.74,0.92 -3.46,1.88 -5.14,2.87l0 0zm11.12 -17.83c-2.51,3.9 -3.84,8.86 -3.01,13.47 0.6,2.54 4.32,2.79 5.73,0.82 2.82,-3.6 3.81,-8.52 3.21,-12.99 -0.22,-3 -4.49,-3.79 -5.94,-1.3z"/>
    </g>
    <path class="fil0" d="M1679.55 417.11c2.25,-0.86 4.46,-1.72 6.73,-2.55 -0.6,2.6 -1.18,5.19 -1.77,7.79 1.08,0.1 3.25,0.29 4.33,0.38 -0.82,2.09 -3.06,1.91 -4.87,2.28 -1.36,5.22 -2.64,10.48 -2.86,15.9 1.25,0.32 3.75,0.99 5,1.31 -3.36,2.34 -9.89,2.58 -10.81,-2.42 0.1,-5.15 1.81,-10.08 2.8,-15.1 -0.91,-0.06 -2.74,-0.19 -3.66,-0.26 1.26,-1.18 2.77,-1.98 4.35,-2.7 0.23,-1.55 0.5,-3.09 0.76,-4.63z"/>
    <path class="fil0" d="M1532 432.41c-2.35,-3.3 -0.74,-8.55 3.03,-10.01 3.71,-1.78 7.66,0 11.13,1.47 -0.85,1.52 -1.65,3.06 -2.47,4.61 -0.74,-3.97 -7.72,-7.12 -8.49,-1.63 3.25,3.52 10.36,5.49 8.57,11.63 -1.88,6.78 -10.9,6.65 -15.76,3.25 0.71,-1.69 1.44,-3.38 2.19,-5.08 1.39,1.8 2.16,4.71 4.83,4.98 2,0.5 4.58,-0.57 4.29,-2.98 -2.23,-2.34 -5.12,-3.91 -7.32,-6.24z"/>
    <g>
     <path class="fil0" d="M1552.56 426.25c1.94,-5.75 10.86,-6.01 14.61,-2.09 1.96,5.5 -1.81,11.11 -1.62,16.74 0.77,0.54 2.34,1.63 3.12,2.19 -3.08,0.67 -6.39,1.02 -8.96,-1.14 -2.55,1.77 -6,2.99 -8.86,1.23 -4.36,-2.74 -2.98,-10.71 2.31,-11.43 2.95,-1.39 9.32,-0.09 8.78,-4.93 -1.21,-4.49 -6.51,-1.71 -9.38,-0.57l0 0zm1.81 10.68c-0.64,1.96 1.49,3.11 2.35,4.57 3.21,-2.25 4.06,-6 4.39,-9.69 -2.68,0.76 -6.8,1.47 -6.74,5.12z"/>
    </g>
    <g>
     <path class="fil0" d="M1604.42 423.04c4.01,-1.14 9.15,-2.69 12.65,0.52 4.7,5.97 -5.37,14.9 1.56,19.68 -3.02,0.72 -5.97,0.54 -8.48,-1.39 -2.06,1.21 -4.22,2.77 -6.76,2.04 -5.54,-0.6 -6.24,-9.46 -1.39,-11.58 2.89,-1.21 6.09,-1.27 9.05,-2.29 2.13,-0.85 1.97,-5.02 -0.41,-5.31 -2.55,-1.43 -4.99,0.82 -7.27,1.69 0.26,-0.83 0.77,-2.52 1.04,-3.37l0 0zm2.55 10.27c-2.79,1.41 -3.3,7.25 0.48,7.46 3.72,-1.17 3.44,-5.78 4.2,-8.9 -1.18,0.36 -3.52,1.08 -4.68,1.44z"/>
    </g>
    <path class="fil0" d="M1654.03 426.29c1.33,-6.22 12.42,-6.32 14.87,-0.96 0.38,5.21 -1.63,10.24 -2.48,15.34 0.85,0.57 2.52,1.69 3.37,2.26 -3.02,0.86 -6.32,1.31 -8.74,-1.12 -2.29,1.58 -5.02,2.93 -7.85,1.93 -4.51,-1.49 -4.95,-8.42 -1.2,-10.96 2.32,-1.36 5.05,-1.63 7.6,-2.45 0.1,0.5 0.32,1.5 0.42,2 -0.82,0.26 -2.47,0.8 -3.3,1.08 -0.67,2.31 -2.58,6.2 0.8,7.35 5.65,-0.98 4.03,-8.11 4.11,-12.23l2.12 0.93c0.25,-6.24 -6.07,-5.69 -9.73,-3.17z"/>
    <path class="fil0" d="M818 493.21c111.79,-41.22 231.84,-57.38 350.65,-54.39 131.53,3.39 262,28.73 386.86,69.71 41.59,13.95 82.96,28.99 122.65,47.73 -123.29,-41.76 -251.17,-70.87 -380.94,-82.43 -91.24,-8.11 -183.39,-7.53 -274.33,3.81 -54.49,6.83 -108.56,17.47 -161.24,33.04 -29.24,8.71 -58.15,18.81 -85.83,31.68 10.07,-14.37 20.56,-28.44 30.75,-42.73 2.34,-4.19 7.46,-4.67 11.44,-6.42z"/>
   </g>
   <g id="__x0023_716b2dff">
    <path class="fil1" d="M825.89 184.02c8.17,0.91 16.42,0.99 24.57,-0.01 -1.25,43.98 -1.75,87.97 -1.87,131.97 -0.41,3.11 1.01,7.14 4.79,6.73 5.14,-1.21 9.12,-5.01 13.21,-8.13 17.6,-14.9 32.61,-32.54 46.93,-50.55 8.58,1.04 17.25,1.08 25.81,-0.07 -21.68,15.64 -40.01,35.3 -59.74,53.22 -1.14,1.56 -5.02,3.27 -2.31,5.33 21.9,25.9 44.21,51.45 66.07,77.38 -10.42,-0.82 -20.91,-1.01 -31.32,0.09 -16.93,-22.59 -33.63,-45.53 -53.25,-65.91 -2.69,-2.03 -5.75,-6.79 -9.5,-4.74 -0.83,2.25 -0.66,4.68 -0.73,7.05 0,21.2 0.39,42.42 1.84,63.58 -8.11,-0.98 -16.33,-0.95 -24.44,-0.03 1.85,-71.94 2.29,-143.95 -0.07,-215.89z"/>
    <g>
     <path class="fil1" d="M1504.99 184.17c8.21,0.89 16.53,0.89 24.76,0.03 -1.42,39.5 -1.14,79.03 -1.17,118.54 0.26,32.38 0.63,64.77 1.72,97.14 -8.11,-0.88 -16.3,-0.86 -24.41,0 0.54,-9.09 0.82,-18.2 0.44,-27.29 -6.33,11.51 -15.53,22.24 -28.27,26.66 -17.79,6.14 -38.97,4.38 -54.31,-7.02 -13.64,-10.02 -21.22,-26.43 -23.6,-42.86 -2.55,-18.33 -0.85,-37.72 7.31,-54.53 7.18,-15.03 20.69,-27.27 36.99,-31.43 15.25,-3.98 32.67,-2.51 45.72,6.89 6.38,4.39 11.16,10.62 15.44,17 0.03,-34.38 0.88,-68.77 -0.63,-103.14l0 0zm-46.61 88.97c-11.06,1.75 -20.69,9.13 -26.12,18.81 -8.06,14.29 -9.54,31.21 -8.99,47.31 0.76,14.5 3.65,30.04 13.64,41.21 14.33,16.33 43.21,14.17 56.14,-2.85 10.58,-13.69 12.9,-31.69 13.13,-48.49 0.04,-15.53 -2.23,-32.37 -12.58,-44.62 -8.42,-10.11 -22.6,-13.69 -35.22,-11.37z"/>
    </g>
    <path class="fil1" d="M1337.14 200.17c9.56,-3.56 20.94,4.96 19.42,15.25 -0.52,11.44 -15.9,17.67 -24.28,9.82 -8.73,-6.7 -5.85,-22.2 4.86,-25.07z"/>
    <path class="fil1" d="M1232.91 231.21c8.04,-1.39 15.89,-3.74 23.29,-7.18 -0.99,13.56 -0.82,27.16 -0.89,40.74 12.4,0.19 24.82,-0.01 37.19,-0.89 -0.38,4.01 -0.63,8.04 -0.77,12.07 -12.2,-0.71 -24.43,-0.5 -36.65,-0.54 -2.2,21.73 -0.76,43.59 -1.17,65.37 0.37,12.99 -1.39,26.46 2.89,38.99 2.01,6.38 7.57,11.44 14.26,12.37 9.24,2.07 18.27,-1.75 26.53,-5.49 0.7,2.19 1.42,4.39 2.13,6.6 -14.37,9.41 -32.92,12.52 -49.34,7.11 -7.37,-2.42 -13.29,-8.45 -15.82,-15.74 -3.94,-10.81 -3.11,-22.52 -2.86,-33.81 0.73,-25.13 1.43,-50.29 1.2,-75.44 -6,-0.01 -12.01,0.25 -17.98,0.83 0.29,-4.06 0.41,-8.13 0.26,-12.18 6.07,0.48 12.17,0.77 18.28,0.89 0.1,-11.24 -0.04,-22.47 -0.55,-33.69z"/>
    <g>
     <path class="fil1" d="M978.17 277.51c17.92,-14.52 42.78,-19.14 64.99,-13.64 9.69,2.41 18.28,9.18 22.2,18.46 6.42,14.71 4.49,31.16 4.39,46.75 -0.23,15.06 -0.99,30.1 -0.76,45.16 0.31,4.45 0.22,9.66 3.63,13.04 3.84,3.31 9.29,2.32 13.96,2.45 0.29,1.42 0.86,4.25 1.14,5.68 -9.25,2.8 -19.01,5.85 -28.78,4.11 -7.3,-1.46 -9.69,-9.31 -11.06,-15.63 -9.86,9.94 -22.75,17.37 -36.9,18.49 -12.5,1.05 -26.4,-0.71 -36.09,-9.41 -10.21,-9.37 -12.13,-25.04 -8.21,-37.79 2.86,-9.84 11.05,-17.1 20.12,-21.26 19.35,-9.5 42.07,-7.41 61.73,-15.76 0.87,-11.15 0.64,-23.22 -4.92,-33.26 -4.98,-8.77 -15.6,-12.16 -25.16,-12.08 -12.48,-0.6 -25.27,4.33 -33.42,13.93 -2.42,2.41 -3.94,6.09 -7.52,6.98 0.07,-5.41 0.32,-10.81 0.64,-16.23l0 0zm20.69 65.42c-11.73,7.47 -12.65,24.27 -6.8,35.74 4.58,8.93 15.29,12.83 24.87,11.94 10.04,-1.05 19.65,-5.75 26.79,-12.87 2.92,-2.79 4.68,-6.67 4.58,-10.74 0.1,-12.96 -0.01,-25.92 0.03,-38.87 -16.78,3.5 -34.69,5.46 -49.47,14.81z"/>
    </g>
    <g>
     <path class="fil1" d="M1584.49 277.73c17.23,-14.3 41.15,-18.97 62.83,-14.43 8.48,1.78 16.66,6.32 21.51,13.67 6.2,9.25 7.54,20.78 7.7,31.67 -0.04,21.42 -1.2,42.83 -1.12,64.25 0.23,4.71 0.07,10.04 3.17,13.92 3.77,3.85 9.63,2.82 14.49,2.93 0.32,1.94 0.64,3.88 0.99,5.84 -9.44,2.54 -19.33,5.94 -29.18,3.79 -7.02,-1.71 -9.24,-9.41 -10.48,-15.61 -9.98,10.32 -23.33,17.73 -37.82,18.72 -12.45,0.87 -26.25,-1.07 -35.69,-9.94 -10.3,-10 -11.82,-26.38 -7.03,-39.38 3.47,-9.49 11.95,-16.02 20.94,-19.95 19.19,-8.79 41.4,-6.84 60.65,-15.28 -0.15,-11.61 0.5,-24.35 -6.3,-34.44 -5.43,-8.13 -15.8,-10.78 -25.07,-10.67 -12.13,-0.41 -24.41,4.51 -32.39,13.75 -2.47,2.49 -4.09,6.06 -7.62,7.28 -0.01,-5.38 0.29,-10.75 0.44,-16.12l0 0zm29.64 60.48c-7.75,3.09 -15.56,8.42 -17.93,16.85 -3.14,11.67 -0.06,26.83 11.57,32.66 13.47,6.64 29.71,1.21 40.46,-8.13 3.75,-3.12 6.77,-7.56 6.54,-12.64 0.15,-12.96 -0.01,-25.9 0.04,-38.86 -13.72,2.61 -27.64,4.93 -40.68,10.11z"/>
    </g>
    <g>
     <path class="fil1" d="M1832.17 277.67c17.36,-14.36 41.47,-18.96 63.27,-14.27 9.06,1.98 17.71,7.28 22.28,15.57 6.1,10.73 6.64,23.49 6.48,35.55 -0.35,19.95 -1.24,39.88 -1.07,59.83 0.18,4.32 0.26,9.25 3.31,12.68 3.79,3.59 9.43,2.61 14.18,2.7 0.31,1.43 0.93,4.28 1.24,5.69 -9.32,2.77 -19.13,5.89 -28.92,4.09 -7.31,-1.53 -9.76,-9.5 -10.92,-15.91 -11.25,12.26 -27.68,19.82 -44.43,19.09 -12.55,-0.16 -26.47,-4.32 -33.46,-15.51 -9.49,-15.66 -6.2,-39.25 9.91,-49.34 20.52,-13.95 47,-10.35 69.11,-19.93 -0.25,-11.51 0.38,-24.05 -6.17,-34.12 -5.3,-8.2 -15.61,-11.03 -24.86,-10.96 -11.47,-0.44 -23.11,3.77 -31.2,11.98 -3.15,3.01 -5.21,7.16 -9.13,9.3 -0.16,-5.49 0.17,-10.96 0.38,-16.43l0 0zm29.88 60.43c-8.19,3.17 -16.42,8.96 -18.5,17.99 -2.55,11.16 0.31,25.26 11.05,31.2 11.6,6.38 26.02,3.01 36.51,-4.06 5.05,-3.5 10.79,-7.98 11.19,-14.65 0.57,-13.45 -0.07,-26.92 0.32,-40.38 -13.72,2.34 -27.55,4.84 -40.57,9.89z"/>
    </g>
    <path class="fil1" d="M1174.57 264.93c6.78,-3.49 14.61,-2.44 21.77,-0.93 -0.91,7.09 -1.06,14.24 -1.36,21.38 -0.39,0.5 -1.2,1.5 -1.59,2 -7.72,-3.27 -16.56,-5.21 -24.63,-1.93 -9.11,3.36 -14.1,12.67 -16.45,21.55 -4.09,15.73 -3.71,32.18 -3.49,48.3 0.04,14.87 0.42,29.75 1.33,44.59 -7.81,-0.86 -15.7,-0.92 -23.49,0 1.39,-35.76 1.47,-71.56 1.36,-107.35 -0.15,-9.49 -0.51,-18.98 -1.36,-28.44 8.17,1.02 16.46,1.05 24.65,0.01 -1.18,10.14 -1.77,20.37 -1.65,30.6 6.09,-11.41 12.83,-23.8 24.91,-29.78z"/>
    <path class="fil1" d="M1329.91 264.13c7.91,0.98 15.92,0.99 23.84,0.01 -1.99,45.22 -1.74,90.5 0,135.72 -7.93,-0.86 -15.94,-0.86 -23.84,0.03 1.82,-45.22 2.12,-90.54 0,-135.76z"/>
    <g>
     <path class="fil1" d="M1805.38 410.49c2.13,0 4.29,0 6.45,-0.01 -2.77,10.84 -5.25,21.77 -6.67,32.89 -5.76,-1.97 -13.34,3.59 -17.64,-2.06 -3.63,-6.32 -0.98,-16.1 5.87,-19.1 3.2,-1.53 6.39,0.28 9.18,1.8 1.05,-4.48 2,-8.97 2.82,-13.51l0 0zm-10.05 15.42c-2.7,3.52 -3.56,8.24 -3.15,12.59 0.19,3.27 4.86,3.56 6.32,0.98 2.23,-3.68 3.09,-8.23 2.55,-12.48 -0.36,-2.86 -4.32,-3.39 -5.72,-1.09z"/>
    </g>
    <path class="fil1" d="M1916.19 411.01c4.51,-2.03 6.86,5.59 2.31,6.49 -3.85,1.37 -6.16,-4.9 -2.31,-6.49z"/>
    <path class="fil1" d="M1743.09 443.23c2.74,-9.75 4.6,-19.71 6.07,-29.72 2.42,0.01 4.86,0 7.29,-0.01 -2.79,9.81 -4.76,19.83 -6.2,29.91 -2.41,-0.07 -4.79,-0.13 -7.16,-0.18z"/>
    <path class="fil1" d="M1762.65 422.18c2.25,0.22 4.66,0.1 6.64,1.46 3.47,-1.98 10.15,-3.57 11.48,1.68 0.41,6.13 -1.79,12.05 -2.95,17.99 -1.59,0.01 -4.77,0.03 -6.35,0.04 1.21,-5.46 3.11,-10.84 3.41,-16.46 0.01,-3.04 -4.16,-1.77 -5.3,-0.29 -3.81,4.67 -3.85,11.05 -4.89,16.71 -1.59,0.01 -4.8,0.03 -6.39,0.04 1.66,-7 3.12,-14.07 4.33,-21.17z"/>
    <g>
     <path class="fil1" d="M1819.72 422.86c5.69,-2.99 15.22,-0.68 15.48,6.79 1.74,10.56 -12.04,18.73 -20.37,12.07 -5.11,-5.81 -1.91,-15.85 4.89,-18.85l0 0zm4.26 1.27c-4.58,3.37 -5.94,9.97 -5.38,15.34 0.61,3.34 5.4,2.93 6.89,0.48 2.77,-3.68 4.17,-8.48 3.68,-13.07 -0.16,-2.49 -3.02,-3.84 -5.18,-2.74z"/>
    </g>
    <path class="fil1" d="M1842.81 422.15c2.28,0.23 4.68,0.22 6.73,1.49 3.49,-2.04 10.14,-3.52 11.45,1.75 0.35,6.11 -1.87,11.99 -3.02,17.92 -2.13,0 -4.25,0.01 -6.36,0.04 1.53,-6.08 3.47,-12.15 3.44,-18.49 -2.04,0.66 -4.8,0.31 -5.94,2.52 -3.11,4.7 -3.3,10.53 -4.23,15.92 -1.6,0.01 -4.8,0.04 -6.41,0.06 1.68,-7.03 3.15,-14.1 4.33,-21.22z"/>
    <g>
     <path class="fil1" d="M1865.62 434.24c-0.64,-8.51 8.84,-15.41 16.63,-11.6 4.22,1.85 3.87,7.05 3.75,10.87 -4.83,0.06 -9.66,0.04 -14.48,0.07 0.57,2.39 0.1,5.73 2.69,7.09 3.05,1.81 6.64,0.12 9.88,-0.04 -4.99,7.09 -19.51,2.96 -18.47,-6.39l0 0zm6.44 -2.69c2.82,-0.12 5.68,-0.25 8.52,-0.5 -0.41,-2.39 0.77,-6.92 -2.86,-7.09 -3.9,0.29 -4.66,4.61 -5.66,7.59z"/>
    </g>
    <path class="fil1" d="M1893.97 434.16c-4.73,-2.63 -3.44,-10.33 1.49,-11.91 3.66,-1.55 7.44,0.2 10.81,1.65 -0.89,1.53 -1.74,3.06 -2.58,4.61 -1.02,-3.65 -5.63,-6.63 -8.49,-2.95 1.12,4.2 6.57,4.83 8.46,8.57 0.99,3.03 0.1,6.8 -2.74,8.51 -3.72,2.23 -8.67,1.69 -12.26,-0.57 0.2,-1.88 0.64,-3.72 1.02,-5.57 2.04,2.95 4.74,6.6 8.92,4.89 2.6,-3.65 -2.63,-5.03 -4.63,-7.22z"/>
    <path class="fil1" d="M1913.07 422.38c2.17,0 4.36,0 6.57,0 -1.94,6.87 -3.41,13.86 -4.49,20.92 -1.62,0.01 -4.86,0.04 -6.48,0.04 1.75,-6.92 3.25,-13.91 4.41,-20.97z"/>
    <path class="fil1" d="M1926.83 426.17c1.66,-6.01 12.55,-6.27 14.97,-0.79 0.32,5.2 -1.58,10.2 -2.47,15.26 0.82,0.58 2.47,1.75 3.28,2.34 -2.99,0.85 -6.19,1.08 -8.67,-1.09 -3.34,2.87 -10.04,3.24 -11.28,-1.93 -2.32,-6.68 6.97,-11.47 11.94,-7.6 -5.53,-1.71 -9.19,8.54 -2.8,8.35 3.2,-2.09 2.57,-6.23 3.17,-9.46 -0.01,-2.1 1.84,-4.48 0.12,-6.3 -2.77,-1.59 -5.65,0.39 -8.26,1.23z"/>
   </g>
  </g>
  <rect class="fil2" x="0" y="0" width="2786.49" height="557.3"/>
 </g>
</svg>
