<?xml version="1.0" encoding="UTF-8"?>
<!DOCTYPE svg PUBLIC "-//W3C//DTD SVG 1.1//EN" "http://www.w3.org/Graphics/SVG/1.1/DTD/svg11.dtd">
<!-- Creator: CorelDRAW -->
<svg xmlns="http://www.w3.org/2000/svg" xml:space="preserve" width="127mm" height="127mm" version="1.1" style="shape-rendering:geometricPrecision; text-rendering:geometricPrecision; image-rendering:optimizeQuality; fill-rule:evenodd; clip-rule:evenodd"
viewBox="0 0 12700 12700"
 xmlns:xlink="http://www.w3.org/1999/xlink"
 xmlns:xodm="http://www.corel.com/coreldraw/odm/2003">
 <defs>
  <style type="text/css">
   <![CDATA[
    .fil0 {fill:none}
    .fil1 {fill:#F37A1F;fill-rule:nonzero}
   ]]>
  </style>
 </defs>
 <g id="Layer_x0020_1">
  <metadata id="CorelCorpID_0Corel-Layer"/>
  <rect class="fil0" x="-0.01" y="-0.01" width="12700" height="12700"/>
  <g id="__x0023_f37a1fff">
   <path class="fil1" d="M4113.23 885.99c416.51,-153.93 833.33,-308.18 1250.45,-462.13 -804.15,3912.74 -1614.5,7823.9 -2415.24,11736.95 419.61,-509 829.3,-1026.06 1244.87,-1538.46 -308.51,-414.96 -424.57,-949.71 -386.72,-1459.64 43.15,-594.34 279.95,-1157.65 593.1,-1658.26 127.56,-194.9 234.33,-402.85 361.89,-597.76 584.41,-914.94 1269.38,-1762.53 2003.08,-2561.09 353.81,-390.44 739.59,-749.84 1111.41,-1122.58 496.88,-486.65 984.77,-982.3 1486.94,-1462.74 141.83,380.19 288.33,758.53 432.02,1137.79 -987.26,698.93 -1930.45,1460.56 -2818.71,2281.78 -792.35,739.9 -1548.08,1529.77 -2158.57,2429.5 -266.29,387.02 -479.81,806.94 -667.89,1236.79 -142.77,364.68 -166.05,779.01 -45.63,1153.31 73.56,238.98 204.53,455.92 361.57,648.96 -489.24,508.81 -983,1013.4 -1470.02,1524.44l-45.23 45.85 0.01 0.01 -59.83 58.48 -0.01 0.01c406.26,-3796.98 815.31,-7593.93 1222.51,-11391.21z"/>
   <path class="fil1" d="M5342.27 2720.85c325.56,-72.31 651.76,-143.07 976.4,-218.49 193.97,217.25 384.84,437.3 574.78,657.96 -455.61,342.02 -906.87,690.25 -1360.93,1034.44 -63.63,-491.3 -128.49,-982.29 -190.25,-1473.91z"/>
  </g>
 </g>
</svg>
